<svg width="28" height="28" viewBox="0 0 28 28" fill="none" xmlns="http://www.w3.org/2000/svg">
<path d="M17.7567 7.64166H6.74337C6.41671 7.64166 6.11337 7.65333 5.83337 7.665C3.06837 7.82833 2.33337 8.84333 2.33337 11.9933V12.67C2.33337 13.3117 2.85837 13.8367 3.50004 13.8367H21C21.6417 13.8367 22.1667 13.3117 22.1667 12.67V11.9933C22.1667 8.51666 21.28 7.64166 17.7567 7.64166Z" fill="#CEA16A"/>
<path d="M3.50004 15.5867C2.85837 15.5867 2.33337 16.1117 2.33337 16.7533V20.1483C2.33337 23.625 3.22004 24.5 6.74337 24.5H17.7567C21.2217 24.5 22.1317 23.66 22.1667 20.335V16.7533C22.1667 16.1117 21.6417 15.5867 21 15.5867H3.50004ZM8.12004 21.6533H6.12504C5.64671 21.6533 5.25004 21.2567 5.25004 20.7783C5.25004 20.3 5.64671 19.9033 6.12504 19.9033H8.13171C8.61004 19.9033 9.00671 20.3 9.00671 20.7783C9.00671 21.2567 8.61004 21.6533 8.12004 21.6533ZM14.6417 21.6533H10.6284C10.15 21.6533 9.75337 21.2567 9.75337 20.7783C9.75337 20.3 10.15 19.9033 10.6284 19.9033H14.6417C15.12 19.9033 15.5167 20.3 15.5167 20.7783C15.5167 21.2567 15.1317 21.6533 14.6417 21.6533Z" fill="#CEA16A"/>
<path d="M25.6666 15.5517V9.43833C25.6666 5.78666 23.5783 4.2 20.4283 4.2H10.01C9.1233 4.2 8.32996 4.32833 7.62996 4.59666C7.08163 4.795 6.59163 5.08666 6.19496 5.47166C5.98496 5.67 6.1483 5.99666 6.45163 5.99666H19.1333C21.7583 5.99666 23.8816 8.12 23.8816 10.745V19.11C23.8816 19.4017 24.1966 19.565 24.4066 19.355C25.2116 18.5033 25.6666 17.255 25.6666 15.5517Z" fill="#CEA16A"/>
</svg>
