<svg width="28" height="28" viewBox="0 0 28 28" fill="none" xmlns="http://www.w3.org/2000/svg">
<path d="M24.5 26.5417H3.5C3.02167 26.5417 2.625 26.145 2.625 25.6667C2.625 25.1883 3.02167 24.7917 3.5 24.7917H24.5C24.9783 24.7917 25.375 25.1883 25.375 25.6667C25.375 26.145 24.9783 26.5417 24.5 26.5417Z" fill="#CEA16A"/>
<path d="M6.53333 9.77667H4.66667C4.025 9.77667 3.5 10.3017 3.5 10.9433V21C3.5 21.6417 4.025 22.1667 4.66667 22.1667H6.53333C7.175 22.1667 7.7 21.6417 7.7 21V10.9433C7.7 10.29 7.175 9.77667 6.53333 9.77667Z" fill="#CEA16A"/>
<path d="M14.9332 6.05499H13.0666C12.4249 6.05499 11.8999 6.57999 11.8999 7.22166V21C11.8999 21.6417 12.4249 22.1667 13.0666 22.1667H14.9332C15.5749 22.1667 16.0999 21.6417 16.0999 21V7.22166C16.0999 6.57999 15.5749 6.05499 14.9332 6.05499Z" fill="#CEA16A"/>
<path d="M23.3331 2.33334H21.4665C20.8248 2.33334 20.2998 2.85834 20.2998 3.50001V21C20.2998 21.6417 20.8248 22.1667 21.4665 22.1667H23.3331C23.9748 22.1667 24.4998 21.6417 24.4998 21V3.50001C24.4998 2.85834 23.9748 2.33334 23.3331 2.33334Z" fill="#CEA16A"/>
</svg>
