<svg width="20" height="20" viewBox="0 0 20 20" fill="none" xmlns="http://www.w3.org/2000/svg">
<path d="M13.9998 7.5H10.6248V11.2L12.3498 9.475C12.4748 9.35 12.6332 9.29167 12.7915 9.29167C12.9498 9.29167 13.1082 9.35 13.2332 9.475C13.4748 9.71667 13.4748 10.1167 13.2332 10.3583L10.4415 13.15C10.1998 13.3917 9.79984 13.3917 9.55817 13.15L6.7665 10.3583C6.52484 10.1167 6.52484 9.71667 6.7665 9.475C7.00817 9.23333 7.40817 9.23333 7.64984 9.475L9.37484 11.2V7.5H5.99984C3.33317 7.5 1.6665 9.16667 1.6665 11.8333V13.9917C1.6665 16.6667 3.33317 18.3333 5.99984 18.3333H13.9915C16.6582 18.3333 18.3248 16.6667 18.3248 14V11.8333C18.3332 9.16667 16.6665 7.5 13.9998 7.5Z" fill="#141516"/>
<path d="M10.625 2.29166C10.625 1.94999 10.3417 1.66666 10 1.66666C9.65833 1.66666 9.375 1.94999 9.375 2.29166V7.49999H10.625V2.29166Z" fill="#141516"/>
</svg>
