<svg width="20" height="20" viewBox="0 0 20 20" fill="none" xmlns="http://www.w3.org/2000/svg">
<path d="M10.4167 12.2917H8.33342C7.99175 12.2917 7.70842 12.0083 7.70842 11.6667C7.70842 11.325 7.99175 11.0417 8.33342 11.0417H10.4167C12.6001 11.0417 14.3751 9.26667 14.3751 7.08334C14.3751 4.9 12.6001 3.125 10.4167 3.125H6.25008C4.06675 3.125 2.29175 4.9 2.29175 7.08334C2.29175 8 2.61675 8.89167 3.20008 9.6C3.41675 9.86667 3.38341 10.2583 3.11675 10.4833C2.85008 10.7 2.45841 10.6667 2.23341 10.4C1.46675 9.46667 1.04175 8.29167 1.04175 7.08334C1.04175 4.20833 3.37508 1.875 6.25008 1.875H10.4167C13.2917 1.875 15.6251 4.20833 15.6251 7.08334C15.6251 9.95834 13.2917 12.2917 10.4167 12.2917Z" fill="white"/>
<path d="M13.75 18.125H9.58333C6.70833 18.125 4.375 15.7917 4.375 12.9167C4.375 10.0417 6.70833 7.70834 9.58333 7.70834H11.6667C12.0083 7.70834 12.2917 7.99168 12.2917 8.33334C12.2917 8.67501 12.0083 8.95834 11.6667 8.95834H9.58333C7.4 8.95834 5.625 10.7333 5.625 12.9167C5.625 15.1 7.4 16.875 9.58333 16.875H13.75C15.9333 16.875 17.7083 15.1 17.7083 12.9167C17.7083 12 17.3833 11.1083 16.8 10.4C16.5833 10.1333 16.6167 9.74168 16.8833 9.51668C17.15 9.29168 17.5417 9.33334 17.7667 9.60001C18.5417 10.5333 18.9667 11.7083 18.9667 12.9167C18.9583 15.7917 16.625 18.125 13.75 18.125Z" fill="white"/>
</svg>
