<svg width="41" height="41" viewBox="0 0 41 41" fill="none" xmlns="http://www.w3.org/2000/svg">
<path d="M27.3999 5.43333L12.35 10.4333C2.23328 13.8167 2.23328 19.3333 12.35 22.7L16.8166 24.1833L18.3 28.65C21.6666 38.7667 27.2 38.7667 30.5666 28.65L35.5833 13.6167C37.8166 6.86666 34.1499 3.18333 27.3999 5.43333ZM27.9333 14.4L21.5999 20.7667C21.3499 21.0167 21.0333 21.1333 20.7166 21.1333C20.4 21.1333 20.0833 21.0167 19.8333 20.7667C19.35 20.2833 19.35 19.4833 19.8333 19L26.1666 12.6333C26.6499 12.15 27.4499 12.15 27.9333 12.6333C28.4166 13.1167 28.4166 13.9167 27.9333 14.4Z" fill="white"/>
</svg>
