<svg width="36" height="36" viewBox="0 0 36 36" fill="none" xmlns="http://www.w3.org/2000/svg">
<path d="M29.1751 10.41V14.175C29.1751 15.24 28.0951 15.93 27.0901 15.555C25.8301 15.09 24.4351 14.91 22.9651 15.06C19.3951 15.45 15.7351 18.885 15.1351 22.44C14.6401 25.395 15.5851 28.155 17.4001 30.105C18.2251 31.005 17.6701 32.46 16.4551 32.595C15.4201 32.715 14.4001 32.685 13.8301 32.265L5.58006 26.1C4.60506 25.365 3.81006 23.775 3.81006 22.545V10.41C3.81006 8.71499 5.10006 6.85499 6.67506 6.25499L14.9251 3.16499C15.7801 2.84999 17.1901 2.84999 18.0451 3.16499L26.2951 6.25499C27.8851 6.85499 29.1751 8.71499 29.1751 10.41Z" fill="white"/>
<path d="M24 17.265C20.28 17.265 17.25 20.295 17.25 24.015C17.25 27.735 20.28 30.765 24 30.765C27.72 30.765 30.75 27.735 30.75 24.015C30.75 20.28 27.72 17.265 24 17.265Z" fill="white"/>
<path d="M31.5 33C31.095 33 30.72 32.835 30.435 32.565C30.375 32.49 30.3 32.415 30.255 32.325C30.195 32.25 30.15 32.16 30.12 32.07C30.075 31.98 30.045 31.89 30.03 31.8C30.015 31.695 30 31.605 30 31.5C30 31.305 30.045 31.11 30.12 30.93C30.195 30.735 30.3 30.585 30.435 30.435C30.78 30.09 31.305 29.925 31.785 30.03C31.89 30.045 31.98 30.075 32.07 30.12C32.16 30.15 32.25 30.195 32.325 30.255C32.415 30.3 32.49 30.375 32.565 30.435C32.7 30.585 32.805 30.735 32.88 30.93C32.955 31.11 33 31.305 33 31.5C33 31.89 32.835 32.28 32.565 32.565C32.49 32.625 32.415 32.685 32.325 32.745C32.25 32.805 32.16 32.85 32.07 32.88C31.98 32.925 31.89 32.955 31.785 32.97C31.695 32.985 31.59 33 31.5 33Z" fill="white"/>
</svg>
