<svg width="28" height="28" viewBox="0 0 28 28" fill="none" xmlns="http://www.w3.org/2000/svg">
<path d="M3.5 25.6667H24.5" stroke="#888888" stroke-width="1.5" stroke-linecap="round" stroke-linejoin="round"/>
<path d="M6.53331 9.77667H4.66667C4.025 9.77667 3.5 10.3017 3.5 10.9433V21C3.5 21.6417 4.025 22.1667 4.66667 22.1667H6.53331C7.17497 22.1667 7.69997 21.6417 7.69997 21V10.9433C7.69997 10.3017 7.17497 9.77667 6.53331 9.77667Z" stroke="#888888" stroke-width="1.5" stroke-linecap="round" stroke-linejoin="round"/>
<path d="M14.9333 6.05499H13.0667C12.425 6.05499 11.9 6.57999 11.9 7.22166V21C11.9 21.6417 12.425 22.1667 13.0667 22.1667H14.9333C15.575 22.1667 16.1 21.6417 16.1 21V7.22166C16.1 6.57999 15.575 6.05499 14.9333 6.05499Z" stroke="#888888" stroke-width="1.5" stroke-linecap="round" stroke-linejoin="round"/>
<path d="M23.3334 2.33333H21.4667C20.825 2.33333 20.3 2.85833 20.3 3.5V21C20.3 21.6417 20.825 22.1667 21.4667 22.1667H23.3334C23.975 22.1667 24.5 21.6417 24.5 21V3.5C24.5 2.85833 23.975 2.33333 23.3334 2.33333Z" stroke="#888888" stroke-width="1.5" stroke-linecap="round" stroke-linejoin="round"/>
</svg>
