<svg width="28" height="28" viewBox="0 0 28 28" fill="none" xmlns="http://www.w3.org/2000/svg">
<path d="M10.6866 12.6817C10.5699 12.67 10.4299 12.67 10.3016 12.6817C7.52495 12.5883 5.31995 10.3133 5.31995 7.51333C5.31995 4.65499 7.62995 2.33333 10.4999 2.33333C13.3583 2.33333 15.6799 4.65499 15.6799 7.51333C15.6683 10.3133 13.4633 12.5883 10.6866 12.6817Z" stroke="#888888" stroke-width="1.5" stroke-linecap="round" stroke-linejoin="round"/>
<path d="M19.145 4.66667C21.4083 4.66667 23.2283 6.49834 23.2283 8.75C23.2283 10.955 21.4783 12.7517 19.2966 12.8333C19.2033 12.8217 19.0983 12.8217 18.9933 12.8333" stroke="#888888" stroke-width="1.5" stroke-linecap="round" stroke-linejoin="round"/>
<path d="M4.85334 16.9867C2.03001 18.8767 2.03001 21.9567 4.85334 23.835C8.06167 25.9817 13.3233 25.9817 16.5317 23.835C19.355 21.945 19.355 18.865 16.5317 16.9867C13.335 14.8517 8.07334 14.8517 4.85334 16.9867Z" stroke="#888888" stroke-width="1.5" stroke-linecap="round" stroke-linejoin="round"/>
<path d="M21.3966 23.3333C22.2366 23.1583 23.0299 22.82 23.6833 22.3183C25.5033 20.9533 25.5033 18.7017 23.6833 17.3367C23.0416 16.8467 22.2599 16.52 21.4316 16.3333" stroke="#888888" stroke-width="1.5" stroke-linecap="round" stroke-linejoin="round"/>
</svg>
