<svg width="37" height="37" viewBox="0 0 37 37" fill="none" xmlns="http://www.w3.org/2000/svg">
<path opacity="0.4" d="M10.9396 33.8004H26.6595C30.7995 33.8004 32.4495 31.2654 32.6445 28.1754L33.4245 15.7855C33.6345 12.5455 31.0545 9.80047 27.7995 9.80047C26.8845 9.80047 26.0445 9.27547 25.6245 8.46547L24.5445 6.29047C23.8545 4.92547 22.0545 3.80048 20.5245 3.80048H17.0896C15.5446 3.80048 13.7446 4.92547 13.0546 6.29047L11.9746 8.46547C11.5546 9.27547 10.7146 9.80047 9.79956 9.80047C6.54456 9.80047 3.96457 12.5455 4.17457 15.7855L4.95457 28.1754C5.13457 31.2654 6.79956 33.8004 10.9396 33.8004Z" fill="#333333"/>
<path d="M21.0498 13.9255H16.5498C15.9348 13.9255 15.4248 13.4155 15.4248 12.8005C15.4248 12.1855 15.9348 11.6755 16.5498 11.6755H21.0498C21.6648 11.6755 22.1748 12.1855 22.1748 12.8005C22.1748 13.4155 21.6648 13.9255 21.0498 13.9255Z" fill="#333333"/>
<path d="M18.8 27.9954C21.6001 27.9954 23.87 25.7255 23.87 22.9254C23.87 20.1253 21.6001 17.8554 18.8 17.8554C15.9999 17.8554 13.73 20.1253 13.73 22.9254C13.73 25.7255 15.9999 27.9954 18.8 27.9954Z" fill="#333333"/>
</svg>
