<svg width="28" height="25" viewBox="0 0 28 25" fill="none" xmlns="http://www.w3.org/2000/svg">
<path opacity="0.4" d="M28 7.84V18.284C28 21.49 25.396 24.08 22.19 24.08H5.81C2.604 24.08 0 21.49 0 18.284V7.84H28Z" fill="#141516"/>
<path d="M28 5.796V7.84H0V5.796C0 2.59 2.604 0 5.81 0H22.19C25.396 0 28 2.59 28 5.796Z" fill="#141516"/>
<path d="M8.40005 19.39H5.60005C5.02605 19.39 4.55005 18.914 4.55005 18.34C4.55005 17.766 5.02605 17.29 5.60005 17.29H8.40005C8.97405 17.29 9.45005 17.766 9.45005 18.34C9.45005 18.914 8.97405 19.39 8.40005 19.39Z" fill="#141516"/>
<path d="M17.5 19.39H11.9C11.326 19.39 10.85 18.914 10.85 18.34C10.85 17.766 11.326 17.29 11.9 17.29H17.5C18.074 17.29 18.55 17.766 18.55 18.34C18.55 18.914 18.074 19.39 17.5 19.39Z" fill="#141516"/>
</svg>
