<svg width="32" height="32" viewBox="0 0 32 32" fill="none" xmlns="http://www.w3.org/2000/svg">
<path opacity="0.4" d="M9.47999 7.94666L21.5067 3.93333C26.9067 2.13333 29.84 5.07999 28.0533 10.48L24.04 22.5067C21.3467 30.6 16.92 30.6 14.2267 22.5067L13.04 18.9333L9.46666 17.7467C1.38666 15.0667 1.38666 10.6533 9.47999 7.94666Z" fill="#CEA16A"/>
<path d="M16.16 15.5067L21.24 10.4133L16.16 15.5067Z" fill="#CEA16A"/>
<path d="M16.16 16.5067C15.9067 16.5067 15.6533 16.4133 15.4533 16.2133C15.0667 15.8267 15.0667 15.1867 15.4533 14.8L20.52 9.70666C20.9067 9.31999 21.5467 9.31999 21.9333 9.70666C22.32 10.0933 22.32 10.7333 21.9333 11.12L16.8667 16.2133C16.6667 16.4 16.4133 16.5067 16.16 16.5067Z" fill="#CEA16A"/>
</svg>
